<svg id="Layer_1" data-name="Layer 1" xmlns="http://www.w3.org/2000/svg" viewBox="0 0 166.1 11.15"><defs><style>.cls-1{fill:#fff;}</style></defs><title>correo</title><path class="cls-1" d="M46.93,74.93a3.46,3.46,0,0,1-1.67-.39,2.72,2.72,0,0,1-1.13-1.19,5.33,5.33,0,0,1,0-4.1,2.79,2.79,0,0,1,1.18-1.2,3.64,3.64,0,0,1,1.7-.39,4.9,4.9,0,0,1,1,.1,3.11,3.11,0,0,1,.8.27l-.32.89a5,5,0,0,0-.74-.23,3.25,3.25,0,0,0-.78-.11,2.21,2.21,0,0,0-1.22.32,1.92,1.92,0,0,0-.72.92,4.75,4.75,0,0,0,0,3,1.94,1.94,0,0,0,.7.92,2,2,0,0,0,1.16.32,3.89,3.89,0,0,0,1-.12,5.11,5.11,0,0,0,.81-.28v1a3.41,3.41,0,0,1-.78.28A5.12,5.12,0,0,1,46.93,74.93Z" transform="translate(-43.73 -64.84)"/><path class="cls-1" d="M53.59,67.66a3.31,3.31,0,0,1,.44,0,2.23,2.23,0,0,1,.41.06l-.13,1a2.09,2.09,0,0,0-.39-.07l-.39,0a1.92,1.92,0,0,0-1.46.66,2.45,2.45,0,0,0-.44.76,3.11,3.11,0,0,0-.16,1V74.8H50.4v-7h.89l.11,1.3h.05a3.66,3.66,0,0,1,.52-.72,2.47,2.47,0,0,1,.72-.51A2,2,0,0,1,53.59,67.66Z" transform="translate(-43.73 -64.84)"/><path class="cls-1" d="M56.31,65.16a.68.68,0,0,1,.45.17.7.7,0,0,1,.19.53.69.69,0,0,1-.19.52.63.63,0,0,1-.45.17.61.61,0,0,1-.46-.17.68.68,0,0,1-.18-.52.69.69,0,0,1,.18-.53A.65.65,0,0,1,56.31,65.16Zm.52,2.62v7H55.76v-7Z" transform="translate(-43.73 -64.84)"/><path class="cls-1" d="M60.62,74.8l-2.67-7h1.14L60.64,72c.1.29.21.61.32,1a7.58,7.58,0,0,1,.23.85h.05c0-.22.14-.5.25-.85l.33-1,1.54-4.25H64.5l-2.67,7Z" transform="translate(-43.73 -64.84)"/><path class="cls-1" d="M68.33,67.66a2.91,2.91,0,0,1,1.54.39,2.71,2.71,0,0,1,1,1.11,4,4,0,0,1,.33,1.67v.66H66.34A2.75,2.75,0,0,0,67,73.38a2.18,2.18,0,0,0,1.68.64,5.23,5.23,0,0,0,1.18-.12,6.32,6.32,0,0,0,1.06-.36v.94a4.76,4.76,0,0,1-1.05.34,5.65,5.65,0,0,1-1.24.11,3.66,3.66,0,0,1-1.76-.41,2.91,2.91,0,0,1-1.17-1.21,4.2,4.2,0,0,1-.42-2,4.62,4.62,0,0,1,.39-2,2.94,2.94,0,0,1,1.07-1.28A3,3,0,0,1,68.33,67.66Zm0,.87a1.74,1.74,0,0,0-1.36.55,2.6,2.6,0,0,0-.6,1.56h3.71a3,3,0,0,0-.19-1.1,1.62,1.62,0,0,0-.58-.75A1.72,1.72,0,0,0,68.32,68.53Z" transform="translate(-43.73 -64.84)"/><path class="cls-1" d="M76.18,67.66a3.31,3.31,0,0,1,.44,0,2.23,2.23,0,0,1,.41.06l-.13,1a2.26,2.26,0,0,0-.39-.07l-.39,0a1.92,1.92,0,0,0-1.46.66,2.27,2.27,0,0,0-.44.76,2.86,2.86,0,0,0-.16,1V74.8H73v-7h.88l.12,1.3h0a3.71,3.71,0,0,1,.53-.72,2.43,2.43,0,0,1,.71-.51A2.09,2.09,0,0,1,76.18,67.66Z" transform="translate(-43.73 -64.84)"/><path class="cls-1" d="M84.4,71.28a5,5,0,0,1-.22,1.55A3.18,3.18,0,0,1,83.53,74a2.86,2.86,0,0,1-1,.72,3.61,3.61,0,0,1-1.35.24,3.37,3.37,0,0,1-1.29-.24,3.05,3.05,0,0,1-1-.72,3.35,3.35,0,0,1-.66-1.14A5,5,0,0,1,78,71.28a4.48,4.48,0,0,1,.39-2,2.81,2.81,0,0,1,1.12-1.24,3.38,3.38,0,0,1,1.73-.42,3.18,3.18,0,0,1,1.68.43A2.79,2.79,0,0,1,84,69.32,4.37,4.37,0,0,1,84.4,71.28Zm-5.34,0a4.36,4.36,0,0,0,.23,1.47,2,2,0,0,0,.69,1,2,2,0,0,0,3.1-1,4.37,4.37,0,0,0,.22-1.47,4.21,4.21,0,0,0-.22-1.45,1.92,1.92,0,0,0-.69-.94,2,2,0,0,0-1.21-.34,1.82,1.82,0,0,0-1.61.73A3.42,3.42,0,0,0,79.06,71.28Z" transform="translate(-43.73 -64.84)"/><path class="cls-1" d="M96.13,70.13A5.3,5.3,0,0,1,96,71.32a3.55,3.55,0,0,1-.42,1,2.26,2.26,0,0,1-.7.74,1.8,1.8,0,0,1-1,.28,1.31,1.31,0,0,1-.95-.35,1.44,1.44,0,0,1-.42-.82h-.06a2.14,2.14,0,0,1-.71.84,2,2,0,0,1-1.16.33A1.86,1.86,0,0,1,89,72.71,2.7,2.7,0,0,1,88.5,71a3.37,3.37,0,0,1,.34-1.52,2.73,2.73,0,0,1,1-1.05A2.83,2.83,0,0,1,91.29,68a5.8,5.8,0,0,1,1.11.1,4.77,4.77,0,0,1,.85.21l-.12,2.58c0,.16,0,.28,0,.36v.2a1.33,1.33,0,0,0,.24.93.85.85,0,0,0,.6.24.89.89,0,0,0,.72-.34,2.12,2.12,0,0,0,.45-.9,5,5,0,0,0,.15-1.26A4.17,4.17,0,0,0,94.78,68a3.39,3.39,0,0,0-1.36-1.32,4.3,4.3,0,0,0-2-.45,5.39,5.39,0,0,0-2,.35,4.18,4.18,0,0,0-1.46,1,4.35,4.35,0,0,0-.91,1.53,6,6,0,0,0-.31,2,4.85,4.85,0,0,0,.47,2.22,3.17,3.17,0,0,0,1.36,1.4,4.74,4.74,0,0,0,2.2.47,6.69,6.69,0,0,0,1.5-.17,12.57,12.57,0,0,0,1.29-.39v.83a6.68,6.68,0,0,1-1.26.39,7.28,7.28,0,0,1-1.53.15,5.53,5.53,0,0,1-2.64-.58,4,4,0,0,1-1.68-1.67,5.47,5.47,0,0,1-.58-2.61,6.46,6.46,0,0,1,.38-2.28,5.17,5.17,0,0,1,1.1-1.8,5,5,0,0,1,1.75-1.18,6,6,0,0,1,2.31-.42,5.08,5.08,0,0,1,2.44.57,4.15,4.15,0,0,1,1.66,1.61A4.85,4.85,0,0,1,96.13,70.13ZM89.46,71a1.87,1.87,0,0,0,.34,1.25,1.15,1.15,0,0,0,.94.4,1.2,1.2,0,0,0,1.09-.56,3,3,0,0,0,.4-1.47l.08-1.67a3.61,3.61,0,0,0-.46-.1,3.24,3.24,0,0,0-.55,0,1.72,1.72,0,0,0-1.07.31,1.86,1.86,0,0,0-.59.81A3.16,3.16,0,0,0,89.46,71Z" transform="translate(-43.73 -64.84)"/><path class="cls-1" d="M100.63,67.67a2.7,2.7,0,0,1,1.86.56,2.39,2.39,0,0,1,.61,1.8V74.8h-.78l-.2-1h-.05a3.79,3.79,0,0,1-.62.64,2.27,2.27,0,0,1-.74.39,3.4,3.4,0,0,1-1,.13,2.71,2.71,0,0,1-1.13-.22,1.78,1.78,0,0,1-.78-.68,2.13,2.13,0,0,1-.29-1.15,1.86,1.86,0,0,1,.83-1.62,4.88,4.88,0,0,1,2.54-.61l1.21-.05v-.43a1.72,1.72,0,0,0-.39-1.28,1.57,1.57,0,0,0-1.1-.36,3.3,3.3,0,0,0-1,.16,5.71,5.71,0,0,0-1,.38l-.33-.81a6.53,6.53,0,0,1,1.09-.42A5,5,0,0,1,100.63,67.67Zm1.42,3.68-1.07,0a3.57,3.57,0,0,0-1.85.43,1.23,1.23,0,0,0-.54,1.07,1.07,1.07,0,0,0,.36.89,1.55,1.55,0,0,0,1,.29,2.29,2.29,0,0,0,1.53-.52,2,2,0,0,0,.6-1.56Z" transform="translate(-43.73 -64.84)"/><path class="cls-1" d="M106.36,74.8h-1.07v-10h1.07Z" transform="translate(-43.73 -64.84)"/><path class="cls-1" d="M116.22,67.66a2.35,2.35,0,0,1,1.75.6,2.74,2.74,0,0,1,.59,1.95V74.8h-1V70.26a1.94,1.94,0,0,0-.37-1.28,1.35,1.35,0,0,0-1.09-.43,1.78,1.78,0,0,0-1.48.59,2.78,2.78,0,0,0-.46,1.74V74.8h-1.06V70.26a2.39,2.39,0,0,0-.16-1,1.2,1.2,0,0,0-.49-.57,1.68,1.68,0,0,0-.82-.19,2,2,0,0,0-1.12.29,1.64,1.64,0,0,0-.61.86,4.57,4.57,0,0,0-.19,1.39V74.8H108.6v-7h.86l.16,1h0a2.16,2.16,0,0,1,.54-.62,2.55,2.55,0,0,1,.71-.38,3,3,0,0,1,.85-.12,2.86,2.86,0,0,1,1.34.29,1.81,1.81,0,0,1,.79.91h0a2.25,2.25,0,0,1,1-.91A3,3,0,0,1,116.22,67.66Z" transform="translate(-43.73 -64.84)"/><path class="cls-1" d="M123.37,67.67a2.7,2.7,0,0,1,1.86.56,2.35,2.35,0,0,1,.61,1.8V74.8h-.78l-.2-1h0a3.79,3.79,0,0,1-.62.64,2.27,2.27,0,0,1-.74.39,3.37,3.37,0,0,1-1,.13,2.73,2.73,0,0,1-1.14-.22,1.78,1.78,0,0,1-.78-.68,2.13,2.13,0,0,1-.29-1.15,1.86,1.86,0,0,1,.83-1.62,4.9,4.9,0,0,1,2.54-.61l1.21-.05v-.43a1.72,1.72,0,0,0-.39-1.28,1.57,1.57,0,0,0-1.1-.36,3.3,3.3,0,0,0-1,.16,6.07,6.07,0,0,0-1,.38l-.33-.81a6.53,6.53,0,0,1,1.09-.42A5,5,0,0,1,123.37,67.67Zm1.42,3.68-1.07,0a3.57,3.57,0,0,0-1.85.43,1.23,1.23,0,0,0-.54,1.07,1,1,0,0,0,.37.89,1.5,1.5,0,0,0,1,.29,2.25,2.25,0,0,0,1.53-.52,2,2,0,0,0,.6-1.56Z" transform="translate(-43.73 -64.84)"/><path class="cls-1" d="M130.84,74.93a3.46,3.46,0,0,1-1.67-.39A2.72,2.72,0,0,1,128,73.35a4.46,4.46,0,0,1-.4-2,4.37,4.37,0,0,1,.43-2.08,2.72,2.72,0,0,1,1.17-1.2,3.64,3.64,0,0,1,1.7-.39,4.9,4.9,0,0,1,1,.1,3.11,3.11,0,0,1,.8.27l-.32.89a5,5,0,0,0-.74-.23,3.25,3.25,0,0,0-.78-.11,2.16,2.16,0,0,0-1.21.32,1.88,1.88,0,0,0-.73.92,4.75,4.75,0,0,0,0,3,1.94,1.94,0,0,0,.7.92,2,2,0,0,0,1.16.32,3.89,3.89,0,0,0,1-.12,5.11,5.11,0,0,0,.81-.28v1a3.41,3.41,0,0,1-.78.28A5.12,5.12,0,0,1,130.84,74.93Z" transform="translate(-43.73 -64.84)"/><path class="cls-1" d="M137,67.66a2.89,2.89,0,0,1,1.54.39,2.58,2.58,0,0,1,1,1.11,3.83,3.83,0,0,1,.34,1.67v.66H135a2.8,2.8,0,0,0,.62,1.89,2.16,2.16,0,0,0,1.68.64,5.14,5.14,0,0,0,1.17-.12,6.13,6.13,0,0,0,1.07-.36v.94a5,5,0,0,1-1.06.34,5.5,5.5,0,0,1-1.23.11,3.66,3.66,0,0,1-1.76-.41,2.85,2.85,0,0,1-1.17-1.21,4.2,4.2,0,0,1-.42-2,4.77,4.77,0,0,1,.38-2A2.82,2.82,0,0,1,137,67.66Zm0,.87a1.75,1.75,0,0,0-1.36.55,2.73,2.73,0,0,0-.6,1.56h3.72a3,3,0,0,0-.2-1.1,1.61,1.61,0,0,0-.57-.75A1.78,1.78,0,0,0,137,68.53Z" transform="translate(-43.73 -64.84)"/><path class="cls-1" d="M145,67.66a2.64,2.64,0,0,1,1.89.61,2.6,2.6,0,0,1,.64,2V74.8h-1.05V70.3a1.87,1.87,0,0,0-.4-1.31,1.6,1.6,0,0,0-1.23-.44,1.9,1.9,0,0,0-1.64.66,3.32,3.32,0,0,0-.47,1.92V74.8h-1.06v-7h.86l.16,1h.05a2.15,2.15,0,0,1,.57-.63,2.57,2.57,0,0,1,.78-.38A3,3,0,0,1,145,67.66Z" transform="translate(-43.73 -64.84)"/><path class="cls-1" d="M154.26,72.88a1.87,1.87,0,0,1-.33,1.13,2,2,0,0,1-1,.69,4.11,4.11,0,0,1-1.48.23,6.78,6.78,0,0,1-1.28-.11,3.84,3.84,0,0,1-.94-.33v-1a6.06,6.06,0,0,0,1,.38,4.12,4.12,0,0,0,1.21.18,2.26,2.26,0,0,0,1.32-.3.93.93,0,0,0,.41-.8.84.84,0,0,0-.16-.51,1.75,1.75,0,0,0-.55-.43,9.35,9.35,0,0,0-1.06-.45,11.29,11.29,0,0,1-1.17-.51,2.23,2.23,0,0,1-.75-.62,1.71,1.71,0,0,1,.45-2.32,3.45,3.45,0,0,1,1.9-.47,5.32,5.32,0,0,1,2.22.46l-.36.85a6.34,6.34,0,0,0-.93-.31,3.76,3.76,0,0,0-1-.13,2.16,2.16,0,0,0-1.13.24.75.75,0,0,0-.4.67.79.79,0,0,0,.18.53,1.64,1.64,0,0,0,.59.4c.27.13.62.27,1.06.44a9,9,0,0,1,1.14.5,2,2,0,0,1,.74.63A1.54,1.54,0,0,1,154.26,72.88Z" transform="translate(-43.73 -64.84)"/><path class="cls-1" d="M156.52,65.16a.68.68,0,0,1,.45.17.7.7,0,0,1,.19.53.69.69,0,0,1-.19.52.63.63,0,0,1-.45.17.61.61,0,0,1-.46-.17.68.68,0,0,1-.18-.52.69.69,0,0,1,.18-.53A.65.65,0,0,1,156.52,65.16Zm.51,2.62v7H156v-7Z" transform="translate(-43.73 -64.84)"/><path class="cls-1" d="M162.47,67.66a3.31,3.31,0,0,1,.44,0,2.23,2.23,0,0,1,.41.06l-.13,1a2.14,2.14,0,0,0-.38-.07l-.4,0a1.92,1.92,0,0,0-1.46.66,2.45,2.45,0,0,0-.44.76,3.11,3.11,0,0,0-.16,1V74.8h-1.07v-7h.89l.11,1.3h.05a3.66,3.66,0,0,1,.52-.72,2.47,2.47,0,0,1,.72-.51A2,2,0,0,1,162.47,67.66Z" transform="translate(-43.73 -64.84)"/><path class="cls-1" d="M165.19,65.16a.68.68,0,0,1,.45.17.7.7,0,0,1,.19.53.69.69,0,0,1-.19.52.63.63,0,0,1-.45.17.61.61,0,0,1-.46-.17.68.68,0,0,1-.18-.52.69.69,0,0,1,.18-.53A.65.65,0,0,1,165.19,65.16Zm.52,2.62v7h-1.07v-7Z" transform="translate(-43.73 -64.84)"/><path class="cls-1" d="M173.75,67.78v7h-.87l-.15-1h-.06a2.08,2.08,0,0,1-.57.61,2.52,2.52,0,0,1-.77.38,3.46,3.46,0,0,1-.92.12,3.24,3.24,0,0,1-1.4-.27,1.8,1.8,0,0,1-.85-.83,3.2,3.2,0,0,1-.28-1.45v-4.6H169v4.53a1.92,1.92,0,0,0,.4,1.31,1.61,1.61,0,0,0,1.21.43,2.29,2.29,0,0,0,1.25-.3,1.62,1.62,0,0,0,.67-.86,4.43,4.43,0,0,0,.2-1.41v-3.7Z" transform="translate(-43.73 -64.84)"/><path class="cls-1" d="M180.54,72.88A1.81,1.81,0,0,1,180.2,74a1.93,1.93,0,0,1-1,.69,4.13,4.13,0,0,1-1.49.23,6.67,6.67,0,0,1-1.27-.11,3.84,3.84,0,0,1-.94-.33v-1a5.63,5.63,0,0,0,1,.38,4.19,4.19,0,0,0,1.22.18,2.3,2.3,0,0,0,1.32-.3.93.93,0,0,0,.41-.8.85.85,0,0,0-.17-.51,1.69,1.69,0,0,0-.54-.43,8.87,8.87,0,0,0-1.07-.45,12.06,12.06,0,0,1-1.16-.51,2,2,0,0,1-.75-.62,1.71,1.71,0,0,1,.45-2.32,3.43,3.43,0,0,1,1.89-.47,5.65,5.65,0,0,1,1.19.12,5.41,5.41,0,0,1,1,.34L180,69a6.34,6.34,0,0,0-.93-.31,3.83,3.83,0,0,0-1-.13,2.18,2.18,0,0,0-1.13.24.76.76,0,0,0-.39.67.79.79,0,0,0,.18.53,1.55,1.55,0,0,0,.59.4c.27.13.62.27,1.06.44a9,9,0,0,1,1.14.5,2,2,0,0,1,.74.63A1.61,1.61,0,0,1,180.54,72.88Z" transform="translate(-43.73 -64.84)"/><path class="cls-1" d="M182.09,74.14a.72.72,0,0,1,.75-.83.85.85,0,0,1,.55.19.8.8,0,0,1,.22.64.81.81,0,0,1-.22.64.76.76,0,0,1-.55.2.72.72,0,0,1-.53-.2A.81.81,0,0,1,182.09,74.14Z" transform="translate(-43.73 -64.84)"/><path class="cls-1" d="M188.51,74.93a3.5,3.5,0,0,1-1.68-.39,2.7,2.7,0,0,1-1.12-1.19,5.21,5.21,0,0,1,0-4.1,2.77,2.77,0,0,1,1.17-1.2,3.65,3.65,0,0,1,1.71-.39,4.74,4.74,0,0,1,1,.1,3.19,3.19,0,0,1,.81.27l-.32.89a5.42,5.42,0,0,0-.74-.23,3.26,3.26,0,0,0-.79-.11,2.18,2.18,0,0,0-1.21.32,1.86,1.86,0,0,0-.72.92,4.14,4.14,0,0,0-.24,1.5,3.91,3.91,0,0,0,.23,1.45,1.88,1.88,0,0,0,.7.92,2,2,0,0,0,1.16.32,3.81,3.81,0,0,0,1-.12,5.62,5.62,0,0,0,.82-.28v1a3.68,3.68,0,0,1-.79.28A5,5,0,0,1,188.51,74.93Z" transform="translate(-43.73 -64.84)"/><path class="cls-1" d="M198,71.28a5,5,0,0,1-.23,1.55,3,3,0,0,1-.64,1.14,2.86,2.86,0,0,1-1,.72,3.62,3.62,0,0,1-1.36.24,3.37,3.37,0,0,1-1.29-.24,2.92,2.92,0,0,1-1-.72,3.35,3.35,0,0,1-.66-1.14,4.68,4.68,0,0,1-.23-1.55,4.48,4.48,0,0,1,.39-2,2.85,2.85,0,0,1,1.11-1.24,3.45,3.45,0,0,1,1.74-.42,3.18,3.18,0,0,1,1.68.43,2.85,2.85,0,0,1,1.12,1.23A4.37,4.37,0,0,1,198,71.28Zm-5.34,0a4.37,4.37,0,0,0,.22,1.47,1.85,1.85,0,0,0,1.9,1.3,2,2,0,0,0,1.2-.34,2,2,0,0,0,.69-1,4.36,4.36,0,0,0,.23-1.47,4.2,4.2,0,0,0-.23-1.45,1.92,1.92,0,0,0-.69-.94,2,2,0,0,0-1.21-.34,1.8,1.8,0,0,0-1.6.73A3.42,3.42,0,0,0,192.69,71.28Z" transform="translate(-43.73 -64.84)"/><path class="cls-1" d="M207.49,67.66a2.37,2.37,0,0,1,1.75.6,2.74,2.74,0,0,1,.59,1.95V74.8h-1.05V70.26a1.94,1.94,0,0,0-.37-1.28,1.35,1.35,0,0,0-1.09-.43,1.76,1.76,0,0,0-1.48.59,2.78,2.78,0,0,0-.46,1.74V74.8h-1.06V70.26a2.37,2.37,0,0,0-.17-1,1.18,1.18,0,0,0-.48-.57,1.68,1.68,0,0,0-.82-.19,2,2,0,0,0-1.12.29,1.64,1.64,0,0,0-.61.86,4.28,4.28,0,0,0-.19,1.39V74.8h-1.06v-7h.85l.16,1h.06a2.13,2.13,0,0,1,.53-.62,2.76,2.76,0,0,1,.72-.38,3,3,0,0,1,.85-.12,2.86,2.86,0,0,1,1.34.29,1.75,1.75,0,0,1,.78.91h.06a2.25,2.25,0,0,1,.95-.91A3,3,0,0,1,207.49,67.66Z" transform="translate(-43.73 -64.84)"/></svg>