<svg id="Layer_1" data-name="Layer 1" xmlns="http://www.w3.org/2000/svg" viewBox="0 0 166.1 11.15"><defs><style>.cls-1{fill:#626771;}</style></defs><title>correo-sirius-1-paragraph</title><path class="cls-1" d="M21,74.93a3.46,3.46,0,0,1-1.67-.39,2.64,2.64,0,0,1-1.12-1.19,4.45,4.45,0,0,1-.41-2,4.37,4.37,0,0,1,.43-2.08,2.72,2.72,0,0,1,1.17-1.2,3.65,3.65,0,0,1,1.71-.39,4.81,4.81,0,0,1,1,.1,3.19,3.19,0,0,1,.81.27l-.33.89a5.26,5.26,0,0,0-.73-.23,3.29,3.29,0,0,0-.79-.1,2.15,2.15,0,0,0-1.21.31,1.88,1.88,0,0,0-.73.92,4.14,4.14,0,0,0-.24,1.5,3.89,3.89,0,0,0,.24,1.45,1.84,1.84,0,0,0,.7.92A2,2,0,0,0,21,74a3.86,3.86,0,0,0,1-.12,5.62,5.62,0,0,0,.82-.28v1a3.68,3.68,0,0,1-.79.28A5.12,5.12,0,0,1,21,74.93Z" transform="translate(-17.81 -64.84)"/><path class="cls-1" d="M27.67,67.66l.45,0a2.37,2.37,0,0,1,.41.06l-.14,1a2,2,0,0,0-.38-.07l-.4,0a2,2,0,0,0-.8.17,1.83,1.83,0,0,0-.65.49,2.29,2.29,0,0,0-.45.76,3.11,3.11,0,0,0-.16,1V74.8H24.48v-7h.89l.11,1.29h.05a3.33,3.33,0,0,1,.52-.71,2.45,2.45,0,0,1,.72-.52A2,2,0,0,1,27.67,67.66Z" transform="translate(-17.81 -64.84)"/><path class="cls-1" d="M30.39,65.16a.62.62,0,0,1,.64.7.65.65,0,0,1-.19.52.63.63,0,0,1-.45.18.63.63,0,0,1-.46-.18.68.68,0,0,1-.18-.52.69.69,0,0,1,.18-.53A.67.67,0,0,1,30.39,65.16Zm.52,2.63v7H29.85v-7Z" transform="translate(-17.81 -64.84)"/><path class="cls-1" d="M34.7,74.8l-2.66-7h1.14L34.72,72c.11.29.21.61.33,1s.18.63.23.85h0c0-.22.14-.5.26-.85s.23-.67.32-1l1.55-4.24h1.14l-2.67,7Z" transform="translate(-17.81 -64.84)"/><path class="cls-1" d="M42.41,67.66a2.91,2.91,0,0,1,1.54.39,2.68,2.68,0,0,1,1,1.12,3.9,3.9,0,0,1,.34,1.66v.66H40.42A2.78,2.78,0,0,0,41,73.38a2.18,2.18,0,0,0,1.68.64,5.17,5.17,0,0,0,1.18-.12A6,6,0,0,0,45,73.54v.94a4.76,4.76,0,0,1-1.05.34,5.62,5.62,0,0,1-1.23.11,3.67,3.67,0,0,1-1.77-.41,2.91,2.91,0,0,1-1.17-1.21,4.33,4.33,0,0,1-.41-2,4.62,4.62,0,0,1,.38-2,2.86,2.86,0,0,1,1.07-1.27A3,3,0,0,1,42.41,67.66Zm0,.87a1.72,1.72,0,0,0-1.36.56,2.57,2.57,0,0,0-.6,1.55h3.71a3.09,3.09,0,0,0-.19-1.1,1.62,1.62,0,0,0-.58-.75A1.72,1.72,0,0,0,42.4,68.53Z" transform="translate(-17.81 -64.84)"/><path class="cls-1" d="M50.26,67.66l.44,0a2.23,2.23,0,0,1,.41.06l-.13,1a2.14,2.14,0,0,0-.38-.07l-.4,0a1.92,1.92,0,0,0-1.46.66,2.45,2.45,0,0,0-.44.76,3.11,3.11,0,0,0-.16,1V74.8H47.07v-7H48l.11,1.29h0a3.33,3.33,0,0,1,.52-.71,2.33,2.33,0,0,1,.72-.52A2,2,0,0,1,50.26,67.66Z" transform="translate(-17.81 -64.84)"/><path class="cls-1" d="M58.49,71.28a5,5,0,0,1-.23,1.55A3,3,0,0,1,57.61,74a2.86,2.86,0,0,1-1,.72,3.61,3.61,0,0,1-1.35.24A3.37,3.37,0,0,1,54,74.69a2.92,2.92,0,0,1-1-.72,3.06,3.06,0,0,1-.66-1.14A4.67,4.67,0,0,1,52,71.28a4.48,4.48,0,0,1,.39-2,2.87,2.87,0,0,1,1.12-1.24,3.41,3.41,0,0,1,1.73-.42,3.18,3.18,0,0,1,1.68.43,2.82,2.82,0,0,1,1.12,1.24A4.32,4.32,0,0,1,58.49,71.28Zm-5.35,0a4.32,4.32,0,0,0,.23,1.47,2,2,0,0,0,.69,1,2,2,0,0,0,3.1-1,4.33,4.33,0,0,0,.22-1.47,4.21,4.21,0,0,0-.22-1.45,1.92,1.92,0,0,0-.69-.94,2.06,2.06,0,0,0-1.21-.34,1.85,1.85,0,0,0-1.61.73A3.42,3.42,0,0,0,53.14,71.28Z" transform="translate(-17.81 -64.84)"/><path class="cls-1" d="M70.21,70.13a4.73,4.73,0,0,1-.14,1.19,3.55,3.55,0,0,1-.42,1,2.16,2.16,0,0,1-.7.74,1.8,1.8,0,0,1-1,.28A1.28,1.28,0,0,1,67,73a1.4,1.4,0,0,1-.43-.82h0a2.16,2.16,0,0,1-.72.84,2,2,0,0,1-1.15.33,1.85,1.85,0,0,1-1.54-.67A2.65,2.65,0,0,1,62.58,71a3.24,3.24,0,0,1,.35-1.52,2.7,2.7,0,0,1,1-1.05A2.83,2.83,0,0,1,65.37,68a6.74,6.74,0,0,1,1.11.1,4.91,4.91,0,0,1,.86.21l-.13,2.58c0,.16,0,.28,0,.36a1.64,1.64,0,0,0,0,.2,1.28,1.28,0,0,0,.25.93.81.81,0,0,0,.59.24.89.89,0,0,0,.72-.34,2.12,2.12,0,0,0,.45-.9,5,5,0,0,0,.15-1.26A4.1,4.1,0,0,0,68.86,68a3.26,3.26,0,0,0-1.36-1.32,4.16,4.16,0,0,0-2-.46,5.3,5.3,0,0,0-2,.35,4.13,4.13,0,0,0-1.47,1,4.35,4.35,0,0,0-.91,1.53,6,6,0,0,0-.3,2,4.86,4.86,0,0,0,.46,2.22,3.17,3.17,0,0,0,1.36,1.4,4.77,4.77,0,0,0,2.2.47,6.16,6.16,0,0,0,1.5-.17,12.07,12.07,0,0,0,1.3-.39v.83a7,7,0,0,1-1.27.39,7.22,7.22,0,0,1-1.53.15,5.53,5.53,0,0,1-2.64-.58,4,4,0,0,1-1.68-1.67A5.44,5.44,0,0,1,60,71.13a6.69,6.69,0,0,1,.38-2.28,5,5,0,0,1,1.1-1.79,4.9,4.9,0,0,1,1.75-1.19,6.06,6.06,0,0,1,2.31-.42,5.08,5.08,0,0,1,2.44.57,4.2,4.2,0,0,1,1.67,1.62A4.88,4.88,0,0,1,70.21,70.13ZM63.54,71a1.86,1.86,0,0,0,.34,1.24,1.15,1.15,0,0,0,.94.4,1.2,1.2,0,0,0,1.09-.56,3,3,0,0,0,.4-1.47l.08-1.67a3.83,3.83,0,0,0-.45-.1,3.36,3.36,0,0,0-.56,0,1.67,1.67,0,0,0-1.06.31,1.85,1.85,0,0,0-.6.82A3.08,3.08,0,0,0,63.54,71Z" transform="translate(-17.81 -64.84)"/><path class="cls-1" d="M74.71,67.67a2.69,2.69,0,0,1,1.86.56,2.35,2.35,0,0,1,.61,1.8V74.8h-.77l-.21-1h0a3.79,3.79,0,0,1-.62.64,2.27,2.27,0,0,1-.74.39,3.37,3.37,0,0,1-1,.13,2.73,2.73,0,0,1-1.14-.22,1.78,1.78,0,0,1-.78-.68,2.13,2.13,0,0,1-.29-1.15,1.84,1.84,0,0,1,.84-1.62,4.84,4.84,0,0,1,2.53-.61l1.21-.05v-.43a1.72,1.72,0,0,0-.39-1.28,1.57,1.57,0,0,0-1.1-.36,3.3,3.3,0,0,0-1.05.16,7.24,7.24,0,0,0-.95.38l-.32-.81a6.09,6.09,0,0,1,1.08-.42A5,5,0,0,1,74.71,67.67Zm1.42,3.68-1.07,0a3.7,3.7,0,0,0-1.85.43,1.23,1.23,0,0,0-.54,1.07,1,1,0,0,0,.37.89,1.5,1.5,0,0,0,1,.29,2.2,2.2,0,0,0,1.53-.52,2,2,0,0,0,.6-1.56Z" transform="translate(-17.81 -64.84)"/><path class="cls-1" d="M80.44,74.8H79.37v-10h1.07Z" transform="translate(-17.81 -64.84)"/><path class="cls-1" d="M90.3,67.66a2.33,2.33,0,0,1,1.75.6,2.74,2.74,0,0,1,.59,1.95V74.8h-1V70.26A1.88,1.88,0,0,0,91.22,69a1.37,1.37,0,0,0-1.09-.43,1.78,1.78,0,0,0-1.48.59,2.78,2.78,0,0,0-.46,1.74V74.8H87.13V70.26a2.39,2.39,0,0,0-.16-1,1.2,1.2,0,0,0-.49-.57,1.64,1.64,0,0,0-.81-.19,2,2,0,0,0-1.13.29,1.64,1.64,0,0,0-.61.86,4.62,4.62,0,0,0-.19,1.39V74.8H82.68v-7h.86l.16,1h.06a2.13,2.13,0,0,1,.53-.62,2.23,2.23,0,0,1,.72-.37,2.55,2.55,0,0,1,.84-.13,2.71,2.71,0,0,1,1.34.3,1.71,1.71,0,0,1,.79.9H88A2.15,2.15,0,0,1,89,68,2.91,2.91,0,0,1,90.3,67.66Z" transform="translate(-17.81 -64.84)"/><path class="cls-1" d="M97.45,67.67a2.67,2.67,0,0,1,1.86.56,2.35,2.35,0,0,1,.61,1.8V74.8h-.77l-.21-1h0a4.18,4.18,0,0,1-.61.64,2.5,2.5,0,0,1-.74.39,3.44,3.44,0,0,1-1,.13,2.73,2.73,0,0,1-1.14-.22,1.78,1.78,0,0,1-.78-.68,2.13,2.13,0,0,1-.28-1.15,1.83,1.83,0,0,1,.83-1.62,4.84,4.84,0,0,1,2.53-.61l1.21-.05v-.43a1.72,1.72,0,0,0-.39-1.28,1.55,1.55,0,0,0-1.1-.36,3.3,3.3,0,0,0-1,.16,7.24,7.24,0,0,0-1,.38l-.32-.81a6.2,6.2,0,0,1,1.09-.42A4.9,4.9,0,0,1,97.45,67.67Zm1.42,3.68-1.07,0a3.7,3.7,0,0,0-1.85.43,1.23,1.23,0,0,0-.54,1.07,1,1,0,0,0,.37.89,1.5,1.5,0,0,0,1,.29,2.24,2.24,0,0,0,1.54-.52A2,2,0,0,0,98.87,72Z" transform="translate(-17.81 -64.84)"/><path class="cls-1" d="M104.92,74.93a3.46,3.46,0,0,1-1.67-.39,2.72,2.72,0,0,1-1.13-1.19,4.46,4.46,0,0,1-.4-2,4.37,4.37,0,0,1,.43-2.08,2.72,2.72,0,0,1,1.17-1.2,3.65,3.65,0,0,1,1.71-.39,4.81,4.81,0,0,1,1,.1,3,3,0,0,1,.8.27l-.32.89a5,5,0,0,0-.74-.23,3.21,3.21,0,0,0-.78-.1,2.15,2.15,0,0,0-1.21.31,1.88,1.88,0,0,0-.73.92,4.14,4.14,0,0,0-.24,1.5,3.89,3.89,0,0,0,.24,1.45,1.82,1.82,0,0,0,.69.92,2,2,0,0,0,1.17.32,3.86,3.86,0,0,0,1-.12,5.62,5.62,0,0,0,.82-.28v1a3.68,3.68,0,0,1-.79.28A5.12,5.12,0,0,1,104.92,74.93Z" transform="translate(-17.81 -64.84)"/><path class="cls-1" d="M111.1,67.66a2.88,2.88,0,0,1,1.53.39,2.55,2.55,0,0,1,1,1.12,3.76,3.76,0,0,1,.34,1.66v.66h-4.84a2.73,2.73,0,0,0,.61,1.89,2.18,2.18,0,0,0,1.68.64,5.29,5.29,0,0,0,1.18-.12,6.32,6.32,0,0,0,1.06-.36v.94a4.93,4.93,0,0,1-1,.34,5.65,5.65,0,0,1-1.24.11,3.66,3.66,0,0,1-1.76-.41,2.91,2.91,0,0,1-1.17-1.21,4.2,4.2,0,0,1-.42-2,4.62,4.62,0,0,1,.39-2,2.86,2.86,0,0,1,1.07-1.27A2.94,2.94,0,0,1,111.1,67.66Zm0,.87a1.7,1.7,0,0,0-1.35.56,2.64,2.64,0,0,0-.61,1.55h3.72a2.88,2.88,0,0,0-.2-1.1,1.54,1.54,0,0,0-.57-.75A1.75,1.75,0,0,0,111.08,68.53Z" transform="translate(-17.81 -64.84)"/><path class="cls-1" d="M119.08,67.66a2.23,2.23,0,0,1,2.53,2.57V74.8h-1V70.3a1.87,1.87,0,0,0-.4-1.31,1.57,1.57,0,0,0-1.22-.44,1.87,1.87,0,0,0-1.64.66,3.24,3.24,0,0,0-.48,1.92V74.8h-1.06v-7h.86l.16,1h.06a2,2,0,0,1,.57-.63,2.64,2.64,0,0,1,.77-.38A3,3,0,0,1,119.08,67.66Z" transform="translate(-17.81 -64.84)"/><path class="cls-1" d="M128.34,72.88A1.87,1.87,0,0,1,128,74a2,2,0,0,1-1,.69,4.17,4.17,0,0,1-1.49.23,6.78,6.78,0,0,1-1.28-.11,4,4,0,0,1-.94-.33v-1a7,7,0,0,0,1,.39,4.48,4.48,0,0,0,1.21.17,2.26,2.26,0,0,0,1.32-.3.91.91,0,0,0,.41-.8.84.84,0,0,0-.16-.51,1.75,1.75,0,0,0-.55-.43,8.61,8.61,0,0,0-1.06-.45,10.19,10.19,0,0,1-1.16-.51,2.17,2.17,0,0,1-.76-.62,1.73,1.73,0,0,1,.46-2.32,3.43,3.43,0,0,1,1.89-.47,5.65,5.65,0,0,1,1.19.12,6.22,6.22,0,0,1,1,.34l-.36.85a6.34,6.34,0,0,0-.93-.31,3.76,3.76,0,0,0-1-.13,2.18,2.18,0,0,0-1.13.24.77.77,0,0,0-.4.67.83.83,0,0,0,.19.54,1.62,1.62,0,0,0,.58.39c.27.13.63.27,1.07.44a9.66,9.66,0,0,1,1.14.5,2.1,2.1,0,0,1,.74.63A1.6,1.6,0,0,1,128.34,72.88Z" transform="translate(-17.81 -64.84)"/><path class="cls-1" d="M130.6,65.16a.68.68,0,0,1,.45.17.7.7,0,0,1,.19.53.69.69,0,0,1-.19.52.64.64,0,0,1-.45.18.62.62,0,0,1-.46-.18.68.68,0,0,1-.18-.52.69.69,0,0,1,.18-.53A.65.65,0,0,1,130.6,65.16Zm.52,2.63v7h-1.07v-7Z" transform="translate(-17.81 -64.84)"/><path class="cls-1" d="M136.55,67.66l.45,0a2.37,2.37,0,0,1,.41.06l-.14,1a2,2,0,0,0-.38-.07l-.4,0a2,2,0,0,0-.8.17,1.83,1.83,0,0,0-.65.49,2.29,2.29,0,0,0-.45.76,3.11,3.11,0,0,0-.16,1V74.8h-1.06v-7h.88l.11,1.29h0a3.33,3.33,0,0,1,.52-.71,2.45,2.45,0,0,1,.72-.52A2,2,0,0,1,136.55,67.66Z" transform="translate(-17.81 -64.84)"/><path class="cls-1" d="M139.27,65.16a.68.68,0,0,1,.45.17.66.66,0,0,1,.19.53.65.65,0,0,1-.19.52.64.64,0,0,1-.45.18.63.63,0,0,1-.46-.18.68.68,0,0,1-.18-.52.69.69,0,0,1,.18-.53A.67.67,0,0,1,139.27,65.16Zm.52,2.63v7h-1.06v-7Z" transform="translate(-17.81 -64.84)"/><path class="cls-1" d="M147.83,67.79v7H147l-.15-1h-.06a2,2,0,0,1-.56.61,2.57,2.57,0,0,1-.78.38,3.46,3.46,0,0,1-.92.12,3.24,3.24,0,0,1-1.4-.27,1.8,1.8,0,0,1-.85-.83,3.2,3.2,0,0,1-.28-1.45V67.79H143v4.52a1.92,1.92,0,0,0,.39,1.31,1.61,1.61,0,0,0,1.21.43,2.29,2.29,0,0,0,1.25-.3,1.62,1.62,0,0,0,.67-.86,4.43,4.43,0,0,0,.2-1.41V67.79Z" transform="translate(-17.81 -64.84)"/><path class="cls-1" d="M154.62,72.88a1.81,1.81,0,0,1-.34,1.13,1.93,1.93,0,0,1-1,.69,4.13,4.13,0,0,1-1.49.23,6.67,6.67,0,0,1-1.27-.11,3.84,3.84,0,0,1-.94-.33v-1a6.84,6.84,0,0,0,1,.39,4.6,4.6,0,0,0,1.22.17,2.26,2.26,0,0,0,1.32-.3.93.93,0,0,0,.41-.8.84.84,0,0,0-.16-.51,1.87,1.87,0,0,0-.55-.43,9.35,9.35,0,0,0-1.06-.45,11.29,11.29,0,0,1-1.17-.51,2.13,2.13,0,0,1-.75-.62,1.71,1.71,0,0,1,.45-2.32,3.43,3.43,0,0,1,1.89-.47,5.58,5.58,0,0,1,1.19.12,6.34,6.34,0,0,1,1,.34l-.36.85a6.34,6.34,0,0,0-.93-.31,3.78,3.78,0,0,0-1-.13,2.21,2.21,0,0,0-1.13.24.76.76,0,0,0-.39.67.82.82,0,0,0,.18.54,1.67,1.67,0,0,0,.59.39c.27.13.62.27,1.06.44a9,9,0,0,1,1.14.5,2,2,0,0,1,.74.63A1.61,1.61,0,0,1,154.62,72.88Z" transform="translate(-17.81 -64.84)"/><path class="cls-1" d="M156.17,74.14a.72.72,0,0,1,.75-.83.85.85,0,0,1,.55.19.8.8,0,0,1,.23.64.82.82,0,0,1-.23.64.76.76,0,0,1-.55.2.72.72,0,0,1-.53-.2A.81.81,0,0,1,156.17,74.14Z" transform="translate(-17.81 -64.84)"/><path class="cls-1" d="M162.59,74.93a3.46,3.46,0,0,1-1.67-.39,2.66,2.66,0,0,1-1.13-1.19,5.33,5.33,0,0,1,0-4.1,2.74,2.74,0,0,1,1.18-1.2,3.61,3.61,0,0,1,1.7-.39,4.9,4.9,0,0,1,1,.1,3.24,3.24,0,0,1,.8.27l-.32.89a5.42,5.42,0,0,0-.74-.23,3.23,3.23,0,0,0-.79-.1,2.18,2.18,0,0,0-1.21.31,1.92,1.92,0,0,0-.72.92,4.14,4.14,0,0,0-.24,1.5,3.91,3.91,0,0,0,.23,1.45,1.89,1.89,0,0,0,.7.92,2,2,0,0,0,1.16.32,3.94,3.94,0,0,0,1-.12,5.11,5.11,0,0,0,.81-.28v1a3.59,3.59,0,0,1-.78.28A5.19,5.19,0,0,1,162.59,74.93Z" transform="translate(-17.81 -64.84)"/><path class="cls-1" d="M172.11,71.28a5,5,0,0,1-.22,1.55,3.18,3.18,0,0,1-.65,1.14,2.86,2.86,0,0,1-1,.72,3.62,3.62,0,0,1-1.36.24,3.37,3.37,0,0,1-1.29-.24,3,3,0,0,1-1-.72,3.35,3.35,0,0,1-.66-1.14,5,5,0,0,1-.23-1.55,4.48,4.48,0,0,1,.39-2,2.81,2.81,0,0,1,1.12-1.24,3.38,3.38,0,0,1,1.73-.42,3.18,3.18,0,0,1,1.68.43,2.88,2.88,0,0,1,1.12,1.24A4.32,4.32,0,0,1,172.11,71.28Zm-5.34,0a4.33,4.33,0,0,0,.22,1.47,2.11,2.11,0,0,0,3.1,1,2,2,0,0,0,.7-1,4.6,4.6,0,0,0,.22-1.47,4.47,4.47,0,0,0-.22-1.45,1.88,1.88,0,0,0-.7-.94,2,2,0,0,0-1.21-.34,1.83,1.83,0,0,0-1.6.73A3.42,3.42,0,0,0,166.77,71.28Z" transform="translate(-17.81 -64.84)"/><path class="cls-1" d="M181.57,67.66a2.35,2.35,0,0,1,1.75.6,2.74,2.74,0,0,1,.59,1.95V74.8h-1V70.26a1.94,1.94,0,0,0-.37-1.28,1.39,1.39,0,0,0-1.09-.43,1.78,1.78,0,0,0-1.48.59,2.78,2.78,0,0,0-.46,1.74V74.8H178.4V70.26a2.39,2.39,0,0,0-.16-1,1.2,1.2,0,0,0-.49-.57,1.68,1.68,0,0,0-.82-.19,2,2,0,0,0-1.12.29,1.64,1.64,0,0,0-.61.86,4.62,4.62,0,0,0-.19,1.39V74.8H174v-7h.86l.16,1H175a2.16,2.16,0,0,1,.54-.62,2.29,2.29,0,0,1,.71-.37,2.65,2.65,0,0,1,.85-.13,2.74,2.74,0,0,1,1.34.3,1.75,1.75,0,0,1,.79.9h.05a2.17,2.17,0,0,1,.95-.9A2.91,2.91,0,0,1,181.57,67.66Z" transform="translate(-17.81 -64.84)"/></svg>