<svg id="Layer_1" data-name="Layer 1" xmlns="http://www.w3.org/2000/svg" viewBox="0 0 214.85 13.12"><defs><style>.cls-1{fill:#fff;}</style></defs><title>correo-sirius-2</title><path class="cls-1" d="M20.16,78A3.76,3.76,0,0,1,18,77.44a1.75,1.75,0,0,1-.33-2.57,2.08,2.08,0,0,1,1.16-.62,1.35,1.35,0,0,1-.47-.39.93.93,0,0,1-.19-.59,1.11,1.11,0,0,1,.21-.67,2.11,2.11,0,0,1,.66-.56,1.89,1.89,0,0,1-.9-.76A2.25,2.25,0,0,1,17.83,70a2.62,2.62,0,0,1,.31-1.29,2.05,2.05,0,0,1,.91-.81,3.35,3.35,0,0,1,1.45-.29l.37,0,.36,0a1.76,1.76,0,0,1,.3.06h2.41v.69l-1.29.16a2.6,2.6,0,0,1,.32.6,2.45,2.45,0,0,1,.13.78,2.09,2.09,0,0,1-.72,1.67,2.87,2.87,0,0,1-1.95.62,4,4,0,0,1-.6-.05,1.47,1.47,0,0,0-.48.38.76.76,0,0,0-.16.49.44.44,0,0,0,.12.32.85.85,0,0,0,.37.18,2.32,2.32,0,0,0,.57,0h1.23a2.79,2.79,0,0,1,1.76.48,1.68,1.68,0,0,1,.61,1.41,2,2,0,0,1-1,1.78A4.94,4.94,0,0,1,20.16,78Zm0-.84A5.34,5.34,0,0,0,21.64,77a1.84,1.84,0,0,0,.86-.51,1.15,1.15,0,0,0,.28-.78.92.92,0,0,0-.19-.64,1,1,0,0,0-.56-.29,4.74,4.74,0,0,0-.91-.07H19.9a2.33,2.33,0,0,0-.83.14,1.24,1.24,0,0,0-.54.44,1.33,1.33,0,0,0-.19.72,1,1,0,0,0,.48.87A2.71,2.71,0,0,0,20.19,77.12Zm.28-5.61a1.59,1.59,0,0,0,1.15-.38A1.55,1.55,0,0,0,22,70a1.6,1.6,0,0,0-.39-1.18,1.81,1.81,0,0,0-2.28,0A1.66,1.66,0,0,0,18.94,70a1.44,1.44,0,0,0,.4,1.1A1.57,1.57,0,0,0,20.47,71.51Z" transform="translate(-17.28 -64.84)"/><path class="cls-1" d="M32.94,67.66a2.33,2.33,0,0,1,1.75.6,2.69,2.69,0,0,1,.59,1.95V74.8H34.23V70.26A1.88,1.88,0,0,0,33.86,69a1.37,1.37,0,0,0-1.09-.43,1.78,1.78,0,0,0-1.48.59,2.84,2.84,0,0,0-.46,1.74V74.8H29.77V70.26a2.39,2.39,0,0,0-.16-1,1.23,1.23,0,0,0-.48-.57,1.68,1.68,0,0,0-.82-.19,2,2,0,0,0-1.12.29,1.58,1.58,0,0,0-.61.86,4.32,4.32,0,0,0-.19,1.39V74.8H25.32v-7h.86l.16,1h.06a2.13,2.13,0,0,1,.53-.62,2.34,2.34,0,0,1,.72-.37,2.59,2.59,0,0,1,.84-.13,2.75,2.75,0,0,1,1.35.3,1.69,1.69,0,0,1,.78.9h.06a2.12,2.12,0,0,1,.95-.9A2.9,2.9,0,0,1,32.94,67.66Z" transform="translate(-17.28 -64.84)"/><path class="cls-1" d="M43.52,71.28a5,5,0,0,1-.23,1.55A3,3,0,0,1,42.65,74a2.86,2.86,0,0,1-1,.72,3.62,3.62,0,0,1-1.36.24A3.37,3.37,0,0,1,39,74.69,2.92,2.92,0,0,1,38,74a3.35,3.35,0,0,1-.66-1.14,4.68,4.68,0,0,1-.23-1.55,4.48,4.48,0,0,1,.39-2,2.85,2.85,0,0,1,1.11-1.24,3.45,3.45,0,0,1,1.74-.42,3.18,3.18,0,0,1,1.68.43,2.88,2.88,0,0,1,1.12,1.24A4.32,4.32,0,0,1,43.52,71.28Zm-5.34,0a4.33,4.33,0,0,0,.22,1.47,2,2,0,0,0,.69,1,2.31,2.31,0,0,0,2.41,0,2,2,0,0,0,.69-1,4.32,4.32,0,0,0,.23-1.47,4.2,4.2,0,0,0-.23-1.45,1.92,1.92,0,0,0-.69-.94,2,2,0,0,0-1.21-.34,1.83,1.83,0,0,0-1.6.73A3.42,3.42,0,0,0,38.18,71.28Z" transform="translate(-17.28 -64.84)"/><path class="cls-1" d="M48.68,67.66a2.64,2.64,0,0,1,1.89.61,2.6,2.6,0,0,1,.64,2V74.8H50.16V70.3a1.87,1.87,0,0,0-.4-1.31,1.6,1.6,0,0,0-1.23-.44,1.9,1.9,0,0,0-1.64.66,3.32,3.32,0,0,0-.47,1.92V74.8H45.36v-7h.85l.17,1h0a2.15,2.15,0,0,1,.57-.63,2.57,2.57,0,0,1,.78-.38A2.92,2.92,0,0,1,48.68,67.66Z" transform="translate(-17.28 -64.84)"/><path class="cls-1" d="M55.67,74.06a3.44,3.44,0,0,0,.54,0,2.55,2.55,0,0,0,.44-.11v.82a2,2,0,0,1-.51.15,4.87,4.87,0,0,1-.65.05,2.56,2.56,0,0,1-1-.19,1.5,1.5,0,0,1-.72-.67,2.47,2.47,0,0,1-.28-1.29V68.62h-1V68.1l1-.42.42-1.52h.64v1.63h2.06v.83H54.55v4.13a1.38,1.38,0,0,0,.31,1A1.07,1.07,0,0,0,55.67,74.06Z" transform="translate(-17.28 -64.84)"/><path class="cls-1" d="M60.78,67.66a2.91,2.91,0,0,1,1.54.39,2.68,2.68,0,0,1,1,1.12,3.9,3.9,0,0,1,.33,1.66v.66H58.79a2.73,2.73,0,0,0,.61,1.89,2.18,2.18,0,0,0,1.68.64,5.23,5.23,0,0,0,1.18-.12,6.32,6.32,0,0,0,1.06-.36v.94a4.76,4.76,0,0,1-1,.34,5.65,5.65,0,0,1-1.24.11,3.66,3.66,0,0,1-1.76-.41,2.91,2.91,0,0,1-1.17-1.21,4.21,4.21,0,0,1-.41-2,4.62,4.62,0,0,1,.38-2,2.86,2.86,0,0,1,1.07-1.27A3,3,0,0,1,60.78,67.66Zm0,.87a1.72,1.72,0,0,0-1.36.56,2.57,2.57,0,0,0-.6,1.55h3.71a3.09,3.09,0,0,0-.19-1.1,1.62,1.62,0,0,0-.58-.75A1.72,1.72,0,0,0,60.77,68.53Z" transform="translate(-17.28 -64.84)"/><path class="cls-1" d="M70,72.88A1.87,1.87,0,0,1,69.65,74a2,2,0,0,1-1,.69,4.11,4.11,0,0,1-1.48.23,6.71,6.71,0,0,1-1.28-.11,3.84,3.84,0,0,1-.94-.33v-1a7.29,7.29,0,0,0,1,.39,4.6,4.6,0,0,0,1.22.17,2.26,2.26,0,0,0,1.32-.3A.93.93,0,0,0,69,73a.84.84,0,0,0-.16-.51,1.75,1.75,0,0,0-.55-.43,9.35,9.35,0,0,0-1.06-.45A11.29,11.29,0,0,1,66,71.07a2.23,2.23,0,0,1-.75-.62,1.71,1.71,0,0,1,.45-2.32,3.45,3.45,0,0,1,1.9-.47,5.55,5.55,0,0,1,1.18.12,6.34,6.34,0,0,1,1,.34l-.36.85a6.34,6.34,0,0,0-.93-.31,3.78,3.78,0,0,0-1-.13,2.21,2.21,0,0,0-1.13.24.76.76,0,0,0-.39.67.82.82,0,0,0,.18.54,1.67,1.67,0,0,0,.59.39c.27.13.62.27,1.06.44a9,9,0,0,1,1.14.5,2,2,0,0,1,.74.63A1.54,1.54,0,0,1,70,72.88Z" transform="translate(-17.28 -64.84)"/><path class="cls-1" d="M74.19,74.93A2.62,2.62,0,0,1,72.08,74a4,4,0,0,1-.78-2.7,4.11,4.11,0,0,1,.8-2.74,2.64,2.64,0,0,1,2.11-.92,3.15,3.15,0,0,1,1,.14,2.28,2.28,0,0,1,.72.4,2.47,2.47,0,0,1,.51.56h.07c0-.13,0-.31,0-.55s0-.41,0-.56V64.84h1.06v10h-.86l-.16-1h0a3,3,0,0,1-.51.57,2.28,2.28,0,0,1-.72.4A3,3,0,0,1,74.19,74.93Zm.17-.88A1.85,1.85,0,0,0,76,73.41a3.23,3.23,0,0,0,.47-1.9v-.2a3.87,3.87,0,0,0-.45-2,1.73,1.73,0,0,0-1.61-.72,1.62,1.62,0,0,0-1.47.75,3.74,3.74,0,0,0-.49,2.06,3.4,3.4,0,0,0,.49,2A1.66,1.66,0,0,0,74.36,74.05Z" transform="translate(-17.28 -64.84)"/><path class="cls-1" d="M82.42,67.66a2.91,2.91,0,0,1,1.54.39,2.68,2.68,0,0,1,1,1.12,3.9,3.9,0,0,1,.33,1.66v.66H80.43A2.73,2.73,0,0,0,81,73.38a2.18,2.18,0,0,0,1.68.64,5.23,5.23,0,0,0,1.18-.12A6.32,6.32,0,0,0,85,73.54v.94a4.76,4.76,0,0,1-1,.34,5.65,5.65,0,0,1-1.24.11,3.66,3.66,0,0,1-1.76-.41,2.91,2.91,0,0,1-1.17-1.21,4.21,4.21,0,0,1-.41-2,4.62,4.62,0,0,1,.38-2,2.86,2.86,0,0,1,1.07-1.27A3,3,0,0,1,82.42,67.66Zm0,.87a1.72,1.72,0,0,0-1.36.56,2.57,2.57,0,0,0-.6,1.55h3.71a3.09,3.09,0,0,0-.19-1.1,1.62,1.62,0,0,0-.58-.75A1.72,1.72,0,0,0,82.41,68.53Z" transform="translate(-17.28 -64.84)"/><path class="cls-1" d="M93.13,71.28a5,5,0,0,1-.22,1.55A3.18,3.18,0,0,1,92.26,74a2.86,2.86,0,0,1-1,.72,3.61,3.61,0,0,1-1.35.24,3.37,3.37,0,0,1-1.29-.24,3.05,3.05,0,0,1-1-.72,3.35,3.35,0,0,1-.66-1.14,5,5,0,0,1-.23-1.55,4.48,4.48,0,0,1,.39-2,2.81,2.81,0,0,1,1.12-1.24,3.38,3.38,0,0,1,1.73-.42,3.18,3.18,0,0,1,1.68.43,2.82,2.82,0,0,1,1.12,1.24A4.32,4.32,0,0,1,93.13,71.28Zm-5.34,0A4.32,4.32,0,0,0,88,72.75a2,2,0,0,0,.69,1,2,2,0,0,0,3.1-1A4.33,4.33,0,0,0,92,71.28a4.21,4.21,0,0,0-.22-1.45,1.92,1.92,0,0,0-.69-.94,2.08,2.08,0,0,0-1.21-.34,1.85,1.85,0,0,0-1.61.73A3.42,3.42,0,0,0,87.79,71.28Z" transform="translate(-17.28 -64.84)"/><path class="cls-1" d="M97.78,74.93a3.46,3.46,0,0,1-1.67-.39A2.72,2.72,0,0,1,95,73.35a4.6,4.6,0,0,1-.4-2A4.37,4.37,0,0,1,95,69.25a2.72,2.72,0,0,1,1.17-1.2,3.65,3.65,0,0,1,1.71-.39,4.87,4.87,0,0,1,1,.1,3.11,3.11,0,0,1,.8.27l-.32.89a5.26,5.26,0,0,0-.73-.23,3.35,3.35,0,0,0-.79-.1,2.15,2.15,0,0,0-1.21.31,1.88,1.88,0,0,0-.73.92,4.14,4.14,0,0,0-.24,1.5,3.89,3.89,0,0,0,.24,1.45,1.88,1.88,0,0,0,.69.92,2,2,0,0,0,1.17.32,3.86,3.86,0,0,0,1-.12,5.62,5.62,0,0,0,.82-.28v1a3.68,3.68,0,0,1-.79.28A5.12,5.12,0,0,1,97.78,74.93Z" transform="translate(-17.28 -64.84)"/><path class="cls-1" d="M103.88,67.67a2.67,2.67,0,0,1,1.86.56,2.35,2.35,0,0,1,.61,1.8V74.8h-.77l-.21-1h-.05a4.18,4.18,0,0,1-.61.64,2.38,2.38,0,0,1-.74.39,3.44,3.44,0,0,1-1,.13,2.73,2.73,0,0,1-1.14-.22A1.78,1.78,0,0,1,101,74a2.13,2.13,0,0,1-.29-1.15,1.84,1.84,0,0,1,.84-1.62,4.84,4.84,0,0,1,2.53-.61l1.21-.05v-.43a1.72,1.72,0,0,0-.39-1.28,1.55,1.55,0,0,0-1.1-.36,3.3,3.3,0,0,0-1,.16,7.24,7.24,0,0,0-1,.38l-.32-.81a6.2,6.2,0,0,1,1.09-.42A5,5,0,0,1,103.88,67.67Zm1.42,3.68-1.07,0a3.7,3.7,0,0,0-1.85.43,1.23,1.23,0,0,0-.54,1.07,1.08,1.08,0,0,0,.37.89,1.52,1.52,0,0,0,1,.29,2.24,2.24,0,0,0,1.53-.52A2,2,0,0,0,105.3,72Z" transform="translate(-17.28 -64.84)"/><path class="cls-1" d="M118.43,70.13a5.23,5.23,0,0,1-.14,1.19,3.55,3.55,0,0,1-.42,1,2.16,2.16,0,0,1-.7.74,1.8,1.8,0,0,1-1,.28,1.32,1.32,0,0,1-1-.35,1.44,1.44,0,0,1-.42-.82h-.06a2.14,2.14,0,0,1-.71.84,2,2,0,0,1-1.16.33,1.86,1.86,0,0,1-1.54-.67A2.7,2.7,0,0,1,110.8,71a3.24,3.24,0,0,1,.35-1.52,2.63,2.63,0,0,1,1-1.05,2.83,2.83,0,0,1,1.48-.38,6.74,6.74,0,0,1,1.11.1,4.91,4.91,0,0,1,.86.21l-.13,2.58c0,.16,0,.28,0,.36v.2a1.33,1.33,0,0,0,.24.93.85.85,0,0,0,.6.24.89.89,0,0,0,.72-.34,2.12,2.12,0,0,0,.45-.9,5,5,0,0,0,.15-1.26,4.1,4.1,0,0,0-.49-2.08,3.26,3.26,0,0,0-1.36-1.32,4.16,4.16,0,0,0-2-.46,5.39,5.39,0,0,0-2,.35,4.18,4.18,0,0,0-1.46,1,4.35,4.35,0,0,0-.91,1.53,6,6,0,0,0-.31,2,4.85,4.85,0,0,0,.47,2.22,3.17,3.17,0,0,0,1.36,1.4,4.74,4.74,0,0,0,2.2.47,6.16,6.16,0,0,0,1.5-.17c.48-.12.91-.25,1.3-.39v.83a7,7,0,0,1-1.27.39,7.22,7.22,0,0,1-1.53.15,5.53,5.53,0,0,1-2.64-.58,4,4,0,0,1-1.68-1.67,5.44,5.44,0,0,1-.58-2.61,6.46,6.46,0,0,1,.38-2.28,5,5,0,0,1,1.1-1.79,4.9,4.9,0,0,1,1.75-1.19,6,6,0,0,1,2.31-.42,5.08,5.08,0,0,1,2.44.57,4.2,4.2,0,0,1,1.67,1.62A4.88,4.88,0,0,1,118.43,70.13Zm-6.67.85a1.86,1.86,0,0,0,.34,1.24,1.15,1.15,0,0,0,.94.4,1.2,1.2,0,0,0,1.09-.56,3,3,0,0,0,.4-1.47l.08-1.67a3.83,3.83,0,0,0-.45-.1,3.43,3.43,0,0,0-.56,0,1.67,1.67,0,0,0-1.06.31,1.78,1.78,0,0,0-.6.82A3.08,3.08,0,0,0,111.76,71Z" transform="translate(-17.28 -64.84)"/><path class="cls-1" d="M122.93,67.67a2.7,2.7,0,0,1,1.86.56,2.39,2.39,0,0,1,.61,1.8V74.8h-.78l-.2-1h0a3.79,3.79,0,0,1-.62.64,2.27,2.27,0,0,1-.74.39,3.4,3.4,0,0,1-1,.13,2.71,2.71,0,0,1-1.13-.22,1.78,1.78,0,0,1-.78-.68,2.13,2.13,0,0,1-.29-1.15,1.86,1.86,0,0,1,.83-1.62,4.88,4.88,0,0,1,2.54-.61l1.21-.05v-.43a1.72,1.72,0,0,0-.39-1.28,1.57,1.57,0,0,0-1.1-.36,3.3,3.3,0,0,0-1.05.16,6.72,6.72,0,0,0-.95.38l-.33-.81a6.53,6.53,0,0,1,1.09-.42A5,5,0,0,1,122.93,67.67Zm1.42,3.68-1.07,0a3.67,3.67,0,0,0-1.85.43,1.23,1.23,0,0,0-.54,1.07,1.07,1.07,0,0,0,.36.89,1.55,1.55,0,0,0,1,.29,2.24,2.24,0,0,0,1.53-.52,2,2,0,0,0,.6-1.56Z" transform="translate(-17.28 -64.84)"/><path class="cls-1" d="M128.66,74.8h-1.07v-10h1.07Z" transform="translate(-17.28 -64.84)"/><path class="cls-1" d="M138.52,67.66a2.35,2.35,0,0,1,1.75.6,2.74,2.74,0,0,1,.59,1.95V74.8h-1.05V70.26a1.94,1.94,0,0,0-.37-1.28,1.39,1.39,0,0,0-1.09-.43,1.78,1.78,0,0,0-1.48.59,2.78,2.78,0,0,0-.46,1.74V74.8h-1.06V70.26a2.39,2.39,0,0,0-.16-1,1.2,1.2,0,0,0-.49-.57,1.68,1.68,0,0,0-.82-.19,2,2,0,0,0-1.12.29,1.64,1.64,0,0,0-.61.86,4.62,4.62,0,0,0-.19,1.39V74.8H130.9v-7h.86l.16,1H132a2.16,2.16,0,0,1,.54-.62,2.29,2.29,0,0,1,.71-.37,2.65,2.65,0,0,1,.85-.13,2.74,2.74,0,0,1,1.34.3,1.75,1.75,0,0,1,.79.9h.05a2.17,2.17,0,0,1,.95-.9A2.91,2.91,0,0,1,138.52,67.66Z" transform="translate(-17.28 -64.84)"/><path class="cls-1" d="M145.67,67.67a2.69,2.69,0,0,1,1.86.56,2.35,2.35,0,0,1,.61,1.8V74.8h-.78l-.2-1h0a3.79,3.79,0,0,1-.62.64,2.27,2.27,0,0,1-.74.39,3.37,3.37,0,0,1-1,.13,2.73,2.73,0,0,1-1.14-.22,1.78,1.78,0,0,1-.78-.68,2.13,2.13,0,0,1-.29-1.15,1.84,1.84,0,0,1,.84-1.62,4.84,4.84,0,0,1,2.53-.61l1.21-.05v-.43a1.72,1.72,0,0,0-.39-1.28,1.57,1.57,0,0,0-1.1-.36,3.3,3.3,0,0,0-1.05.16,7.24,7.24,0,0,0-.95.38l-.32-.81a6.09,6.09,0,0,1,1.08-.42A5,5,0,0,1,145.67,67.67Zm1.42,3.68-1.07,0a3.67,3.67,0,0,0-1.85.43,1.23,1.23,0,0,0-.54,1.07,1,1,0,0,0,.37.89,1.5,1.5,0,0,0,1,.29,2.2,2.2,0,0,0,1.53-.52,2,2,0,0,0,.6-1.56Z" transform="translate(-17.28 -64.84)"/><path class="cls-1" d="M153.14,74.93a3.46,3.46,0,0,1-1.67-.39,2.72,2.72,0,0,1-1.13-1.19,4.46,4.46,0,0,1-.4-2,4.37,4.37,0,0,1,.43-2.08,2.72,2.72,0,0,1,1.17-1.2,3.64,3.64,0,0,1,1.7-.39,4.9,4.9,0,0,1,1,.1,3.24,3.24,0,0,1,.8.27l-.32.89a5,5,0,0,0-.74-.23,3.21,3.21,0,0,0-.78-.1,2.21,2.21,0,0,0-1.22.31,1.92,1.92,0,0,0-.72.92,4.75,4.75,0,0,0,0,3,1.89,1.89,0,0,0,.7.92,2,2,0,0,0,1.16.32,3.89,3.89,0,0,0,1-.12,5.11,5.11,0,0,0,.81-.28v1a3.41,3.41,0,0,1-.78.28A5.12,5.12,0,0,1,153.14,74.93Z" transform="translate(-17.28 -64.84)"/><path class="cls-1" d="M159.32,67.66a2.88,2.88,0,0,1,1.53.39,2.55,2.55,0,0,1,1,1.12,3.76,3.76,0,0,1,.34,1.66v.66h-4.85a2.78,2.78,0,0,0,.62,1.89,2.16,2.16,0,0,0,1.68.64,5.14,5.14,0,0,0,1.17-.12,6.13,6.13,0,0,0,1.07-.36v.94a5,5,0,0,1-1.06.34,5.5,5.5,0,0,1-1.23.11,3.66,3.66,0,0,1-1.76-.41,2.91,2.91,0,0,1-1.17-1.21,4.2,4.2,0,0,1-.42-2,4.77,4.77,0,0,1,.38-2,2.86,2.86,0,0,1,2.72-1.72Zm0,.87a1.7,1.7,0,0,0-1.35.56,2.64,2.64,0,0,0-.61,1.55h3.72a3.08,3.08,0,0,0-.2-1.1,1.61,1.61,0,0,0-.57-.75A1.78,1.78,0,0,0,159.3,68.53Z" transform="translate(-17.28 -64.84)"/><path class="cls-1" d="M167.3,67.66a2.64,2.64,0,0,1,1.89.61,2.6,2.6,0,0,1,.64,2V74.8h-1.05V70.3a1.87,1.87,0,0,0-.4-1.31,1.6,1.6,0,0,0-1.23-.44,1.9,1.9,0,0,0-1.64.66,3.32,3.32,0,0,0-.47,1.92V74.8H164v-7h.85l.17,1h.05a2.15,2.15,0,0,1,.57-.63,2.57,2.57,0,0,1,.78-.38A3,3,0,0,1,167.3,67.66Z" transform="translate(-17.28 -64.84)"/><path class="cls-1" d="M176.56,72.88a1.87,1.87,0,0,1-.33,1.13,2,2,0,0,1-1,.69,4.11,4.11,0,0,1-1.48.23,6.78,6.78,0,0,1-1.28-.11,3.84,3.84,0,0,1-.94-.33v-1a7.29,7.29,0,0,0,1,.39,4.6,4.6,0,0,0,1.22.17,2.26,2.26,0,0,0,1.32-.3.93.93,0,0,0,.41-.8.84.84,0,0,0-.16-.51,1.75,1.75,0,0,0-.55-.43,9.35,9.35,0,0,0-1.06-.45,11.29,11.29,0,0,1-1.17-.51,2.23,2.23,0,0,1-.75-.62,1.71,1.71,0,0,1,.45-2.32,3.45,3.45,0,0,1,1.9-.47,5.55,5.55,0,0,1,1.18.12,6.34,6.34,0,0,1,1,.34l-.36.85a6.34,6.34,0,0,0-.93-.31,3.76,3.76,0,0,0-1-.13,2.16,2.16,0,0,0-1.13.24.75.75,0,0,0-.4.67.82.82,0,0,0,.18.54,1.77,1.77,0,0,0,.59.39c.27.13.62.27,1.06.44a9,9,0,0,1,1.14.5,2,2,0,0,1,.74.63A1.54,1.54,0,0,1,176.56,72.88Z" transform="translate(-17.28 -64.84)"/><path class="cls-1" d="M178.82,65.16a.68.68,0,0,1,.45.17.7.7,0,0,1,.19.53.69.69,0,0,1-.19.52.64.64,0,0,1-.45.18.62.62,0,0,1-.46-.18.68.68,0,0,1-.18-.52.69.69,0,0,1,.18-.53A.65.65,0,0,1,178.82,65.16Zm.51,2.63v7h-1.06v-7Z" transform="translate(-17.28 -64.84)"/><path class="cls-1" d="M184.77,67.66l.44,0a2.23,2.23,0,0,1,.41.06l-.13,1a2.14,2.14,0,0,0-.38-.07l-.4,0a1.92,1.92,0,0,0-1.46.66,2.45,2.45,0,0,0-.44.76,3.11,3.11,0,0,0-.16,1V74.8h-1.07v-7h.89l.11,1.29h0a3.33,3.33,0,0,1,.52-.71,2.33,2.33,0,0,1,.72-.52A2,2,0,0,1,184.77,67.66Z" transform="translate(-17.28 -64.84)"/><path class="cls-1" d="M187.49,65.16a.68.68,0,0,1,.45.17.7.7,0,0,1,.19.53.69.69,0,0,1-.19.52.64.64,0,0,1-.45.18.62.62,0,0,1-.46-.18.68.68,0,0,1-.18-.52.69.69,0,0,1,.18-.53A.65.65,0,0,1,187.49,65.16Zm.52,2.63v7h-1.07v-7Z" transform="translate(-17.28 -64.84)"/><path class="cls-1" d="M196.05,67.79v7h-.87l-.15-1H195a2.08,2.08,0,0,1-.57.61,2.52,2.52,0,0,1-.77.38,3.46,3.46,0,0,1-.92.12,3.24,3.24,0,0,1-1.4-.27,1.8,1.8,0,0,1-.85-.83,3.2,3.2,0,0,1-.28-1.45V67.79h1.07v4.52a1.92,1.92,0,0,0,.4,1.31,1.61,1.61,0,0,0,1.21.43,2.29,2.29,0,0,0,1.25-.3,1.62,1.62,0,0,0,.67-.86,4.43,4.43,0,0,0,.2-1.41V67.79Z" transform="translate(-17.28 -64.84)"/><path class="cls-1" d="M202.84,72.88A1.81,1.81,0,0,1,202.5,74a1.93,1.93,0,0,1-1,.69,4.13,4.13,0,0,1-1.49.23,6.67,6.67,0,0,1-1.27-.11,3.84,3.84,0,0,1-.94-.33v-1a6.44,6.44,0,0,0,1,.39,4.6,4.6,0,0,0,1.22.17,2.26,2.26,0,0,0,1.32-.3.93.93,0,0,0,.41-.8.85.85,0,0,0-.17-.51,1.69,1.69,0,0,0-.54-.43,8.87,8.87,0,0,0-1.07-.45,12.06,12.06,0,0,1-1.16-.51,2,2,0,0,1-.75-.62,1.71,1.71,0,0,1,.45-2.32,3.43,3.43,0,0,1,1.89-.47,5.58,5.58,0,0,1,1.19.12,6.34,6.34,0,0,1,1,.34l-.36.85a6.34,6.34,0,0,0-.93-.31,3.83,3.83,0,0,0-1-.13,2.21,2.21,0,0,0-1.13.24.76.76,0,0,0-.39.67.82.82,0,0,0,.18.54,1.67,1.67,0,0,0,.59.39c.27.13.62.27,1.06.44a9,9,0,0,1,1.14.5,2,2,0,0,1,.74.63A1.61,1.61,0,0,1,202.84,72.88Z" transform="translate(-17.28 -64.84)"/><path class="cls-1" d="M204.39,74.14a.72.72,0,0,1,.75-.83.85.85,0,0,1,.55.19.8.8,0,0,1,.22.64.81.81,0,0,1-.22.64.76.76,0,0,1-.55.2.72.72,0,0,1-.53-.2A.81.81,0,0,1,204.39,74.14Z" transform="translate(-17.28 -64.84)"/><path class="cls-1" d="M210.81,74.93a3.5,3.5,0,0,1-1.68-.39A2.7,2.7,0,0,1,208,73.35a5.21,5.21,0,0,1,0-4.1,2.74,2.74,0,0,1,1.18-1.2,3.61,3.61,0,0,1,1.7-.39,4.74,4.74,0,0,1,1,.1,3.19,3.19,0,0,1,.81.27l-.32.89a5.42,5.42,0,0,0-.74-.23,3.23,3.23,0,0,0-.79-.1,2.18,2.18,0,0,0-1.21.31,1.92,1.92,0,0,0-.72.92,4.14,4.14,0,0,0-.24,1.5,3.91,3.91,0,0,0,.23,1.45,1.89,1.89,0,0,0,.7.92,2,2,0,0,0,1.16.32,3.94,3.94,0,0,0,1-.12,5.48,5.48,0,0,0,.81-.28v1a3.68,3.68,0,0,1-.79.28A5,5,0,0,1,210.81,74.93Z" transform="translate(-17.28 -64.84)"/><path class="cls-1" d="M220.33,71.28a5,5,0,0,1-.23,1.55,3,3,0,0,1-.64,1.14,2.86,2.86,0,0,1-1,.72,3.62,3.62,0,0,1-1.36.24,3.37,3.37,0,0,1-1.29-.24,2.92,2.92,0,0,1-1-.72,3.35,3.35,0,0,1-.66-1.14,4.68,4.68,0,0,1-.23-1.55,4.48,4.48,0,0,1,.39-2,2.85,2.85,0,0,1,1.11-1.24,3.45,3.45,0,0,1,1.74-.42,3.18,3.18,0,0,1,1.68.43,2.88,2.88,0,0,1,1.12,1.24A4.32,4.32,0,0,1,220.33,71.28Zm-5.34,0a4.33,4.33,0,0,0,.22,1.47,2,2,0,0,0,.69,1,2.31,2.31,0,0,0,2.41,0,2,2,0,0,0,.69-1,4.32,4.32,0,0,0,.23-1.47,4.2,4.2,0,0,0-.23-1.45,1.92,1.92,0,0,0-.69-.94,2,2,0,0,0-1.21-.34,1.83,1.83,0,0,0-1.6.73A3.42,3.42,0,0,0,215,71.28Z" transform="translate(-17.28 -64.84)"/><path class="cls-1" d="M229.79,67.66a2.37,2.37,0,0,1,1.75.6,2.74,2.74,0,0,1,.59,1.95V74.8h-1V70.26a1.94,1.94,0,0,0-.37-1.28,1.39,1.39,0,0,0-1.09-.43,1.76,1.76,0,0,0-1.48.59,2.78,2.78,0,0,0-.46,1.74V74.8h-1.06V70.26a2.58,2.58,0,0,0-.16-1,1.25,1.25,0,0,0-.49-.57,1.68,1.68,0,0,0-.82-.19,2,2,0,0,0-1.12.29,1.64,1.64,0,0,0-.61.86,4.32,4.32,0,0,0-.19,1.39V74.8h-1.06v-7H223l.16,1h.05a2,2,0,0,1,.54-.62,2.29,2.29,0,0,1,.71-.37,2.65,2.65,0,0,1,.85-.13,2.74,2.74,0,0,1,1.34.3,1.69,1.69,0,0,1,.78.9h.06a2.17,2.17,0,0,1,.95-.9A2.91,2.91,0,0,1,229.79,67.66Z" transform="translate(-17.28 -64.84)"/></svg>