<svg xmlns="http://www.w3.org/2000/svg" viewBox="0 0 897.25 403.04"><defs><style>.cls-1,.cls-5,.cls-6,.cls-7,.cls-8{fill:#fff;}.cls-1,.cls-3,.cls-4{fill-rule:evenodd;}.cls-2,.cls-3{fill:#008a45;}.cls-4{fill:#939598;}.cls-6{font-size:315.59px;font-family:MicrosoftYaHeiUI, Microsoft YaHei UI;}.cls-7{font-size:176px;font-family:ArialMT, Arial;}.cls-8{font-size:53.32px;font-family:YuGothicUI-Bold, Yu Gothic UI;font-weight:700;}.cls-9{letter-spacing:0.15em;}.cls-10{letter-spacing:0.13em;}.cls-11{fill:#96989a;}.cls-12{fill:#198e45;}</style></defs><title>logo-sirius-blank</title><g id="Capa_1" data-name="Capa 1"><path class="cls-1" d="M136.3,317.65a50,50,0,1,1-50,50,50,50,0,0,1,50-50Zm-.18,26.12a23.67,23.67,0,1,0,23.67,23.67A23.67,23.67,0,0,0,136.12,343.77Z" transform="translate(-86.32 -85.02)"/><path class="cls-1" d="M307.51,317.75a50,50,0,1,1-50,50,50,50,0,0,1,50-50Zm0,26.3a23.67,23.67,0,1,0,23.67,23.67A23.66,23.66,0,0,0,307.51,344.05Z" transform="translate(-86.32 -85.02)"/><rect class="cls-2" x="277.12" y="14.01" width="16.93" height="181.89"/><polygon class="cls-3" points="416.38 301.11 305.2 301.11 287.36 301.11 277.17 301.11 277.17 202.52 305.2 202.52 305.2 286.4 416.38 286.4 416.38 301.11"/><path class="cls-1" d="M86.58,342.19,87,256.78c.28-2.14,3.53-5.53,5.87-5.84,22.75-.13,45.5-.07,68.25-.2,2.55-.34,6.12-3.93,6.23-5.62l.54-139.7c.08-2.09,3.2-5.61,6.05-6H291.5c3.08.1,8.59,4.67,9.55,8.44,18.41,56.78,55.2,166.17,55.27,172.89l.65,60.78-.26.12a55.63,55.63,0,0,0-101.4,45l-66-.5-.72-.31a55.64,55.64,0,0,0-102-43.66ZM292.7,272.51l2.1-1.69a.76.76,0,0,0,.25-.73v-7.78a.88.88,0,0,1,.26-.65c3-2.6,6.55-5.9,9-8a1.44,1.44,0,0,0,.58-1.15c0-2.87-1.32-8.25-2.5-12.17-1.55-5.12-18.8-24.36-28.37-36.78a.86.86,0,0,1,.18-.88l6.44-4.9a.55.55,0,0,0,.16-.79l-7.49-5.22a68.5,68.5,0,0,1-8.46,2.36,24,24,0,0,1-4.5.27c-1.2-.09-2.5-.54-2.73-1-.19-.62.46-.84.68-1l3-1.56,3-1.51-.48-1.79a.94.94,0,0,0-.44-.54s-.93-.19-1-.19c-.31-.08-.42-.25-.39-.38a.81.81,0,0,1,.28-.33,15.84,15.84,0,0,1,2.92-1.69,2.65,2.65,0,0,1,1.34-.28c.24.15.16.64-.06,1-.12.23-.29.67-.14.83l1.51,1.53,21.38-11.13c.42-.09,2.14-1.36,2.79-.85a2.56,2.56,0,0,1-.09,2.46,10.33,10.33,0,0,1-1.45,2l-5.65,6.24,2.81,8.41,20.07,31.62,6.53.15,11.25,26,2.48,1.62c-13.19-41.51-26.82-84.88-38.56-128.77-1.85-5-7.95-10-11.17-9.93-28.84.14-57.72,0-86.56.16-3.23.3-7.41,4.26-7.74,7.74l-.38,98v50.91h0v0a.49.49,0,0,0,0,.12v0h0a.51.51,0,0,0,0,.13v0l0,.11v.07l0,.09v.07h0v0h0v0h0l0,.07h0a8.12,8.12,0,0,0,5,5.32h0l.17.07h0l.15.06,0,0,.16.06h0l.16.06h0l.16.05h0l.15.05h0l.16,0h0l.18,0h0l.19,0h0l.18,0h0l.17,0h0c.26,0,.53.06.8.07H192l5.35,0,4.18,0,6.5,0h3l7.63,0h1.89l8.8,0h.75l28.62.13q17,.12,33.94.21v-7Zm33.65,6.9h0Zm6.54-6.92h0l-18.15,0Z" transform="translate(-86.32 -85.02)"/><path class="cls-4" d="M292.7,279.5l-33.94-.21-28.62-.13h-.75l-8.8,0H218.7l-7.63,0h-3l-6.5,0-4.18,0L192,279h-.61c-.27,0-.54,0-.8-.07h0l-.17,0h0l-.18,0h0l-.19,0h0l-.18,0h0l-.16,0h0l-.15-.05h0l-.16-.05h0l-.16-.06h0l-.16-.06,0,0-.15-.06h0l-.17-.07h0a8.12,8.12,0,0,1-5-5.32h0l0-.07h0v0h0v0h0v-.07l0-.09v-.07l0-.11v0a.51.51,0,0,1,0-.13h0v0a.53.53,0,0,1,0-.13h0V229.2l17.81,0,6.21,16.12,45.46-.06-.25,31,22.23,0,17.75-3.7Z" transform="translate(-86.32 -85.02)"/><path class="cls-4" d="M251.89,244.23H208C199.69,223,193.77,203,185.49,181.8c-.24-2.63-.42-4.82.94-6.28,1.68-1.4,5.55-1.37,7-.51,2.46,1.89,1.75,4.25,4.59,5.45,1.25.23,3.37.14,3.91.37a38.56,38.56,0,0,1,.48-6.71c.29-2,1.84-3.7,2.41-4.72,2.14-3.48,3.49-5.41,5.64-8.89a5.73,5.73,0,0,0-.19-3.68,24,24,0,0,1-3.22-9.35l-3.38.16c.51-7.11-.62-15.75,11.2-17.18,6.15-.16,8.67,2.7,11.34,6.75a11.14,11.14,0,0,1,2.76.73,7.41,7.41,0,0,1,.23,3.41h-4.83a12.67,12.67,0,0,0,.92,4.14c.72.93,2.12.39,3.15,1.21.35.27.24,2.31,0,3.35a1.37,1.37,0,0,1-.8.58c.14,2.33.65,5,.38,6.86a5.3,5.3,0,0,1-2.46.64,8,8,0,0,0-3.79,1.21c-.66,1.2-.64,2.16-.19,3.86.69,2.83,4.93,7.33,6.18,10.5q1.22,4.83,2.45,9.66a4,4,0,0,0,2.45,2c6.39.31,14.12-.09,18.09,1,1.24.48,1.87,1.49,2.65,2.09.82.42,3.47-.31,5.67,0,1,.48,1.39,1.93,2.91,2.87l-4.33,2.37a10.08,10.08,0,0,1-2.49-.86c-.64-.18-2.21,0-2.76-.18-1.82.24-1.83,0-2.75,1.41-.12.67-1.3.64-2.15.89-1.52,0-5.88.37-7.1-.1a21.37,21.37,0,0,0-5.07.22,1.74,1.74,0,0,0-.14,2.46,6.16,6.16,0,0,1,.75,2.5c.35,2.25.66,4.15,1,6.4,11.5,1,25.05,4.19,31.31,7.07,4.33,1.67,6.83,5.17,7.79,10.56l4.83,31.58,2.22.16-.15,9.19c.55,1.34,3,.92,5.48.71,1.9-.3,4.64.11,6.86-.25v2.29c-.45.9-3,2-5,2.87a89.2,89.2,0,0,0-9.47,3.81c-.84.25-.76.24-.92.9-2.45.26-4.75.76-7.2,1-.62-.41-.42-2.35-1.38-2.38-1.84-5.19-2.43-9.26-4.27-14.45-.12,0-.45.09-.52,0-.91-1-2.22-5.8-3.42-10.36-.51-4.12-.55-8.63-1.46-12.39-.77-2.51-1.22-5.65-1.83-6.58a1.57,1.57,0,0,0-1.84.77c-1.79,2.43-2.43,5.24-4.14,7.13a3.24,3.24,0,0,1-2,1C251.84,240.75,251.87,242.49,251.89,244.23Z" transform="translate(-86.32 -85.02)"/><circle class="cls-5" cx="136.18" cy="367.7" r="9.96" transform="translate(-306.44 118.96) rotate(-45)"/><path class="cls-1" d="M307.51,377.68a10,10,0,1,0-9.95-10A10,10,0,0,0,307.51,377.68Z" transform="translate(-86.32 -85.02)"/><polygon class="cls-3" points="477.92 135.52 471.62 92.19 451.38 106.42 462.38 84.09 431.88 78.64 464.17 70.11 450.36 44.83 473.09 58.18 480.31 16.32 485.68 57.01 506.98 46.41 493.57 68.28 527.53 76.61 495.34 83.28 506.82 103.8 484.94 92.01 477.92 135.52"/><text class="cls-6" transform="translate(305.53 270.6) scale(0.78 1)">S</text><text class="cls-7" transform="translate(455.49 275.02) scale(0.93 1)">IRIUS</text><rect class="cls-2" x="534.2" y="41.44" width="346.45" height="73.58"/><text class="cls-8" transform="translate(551.91 98.55) scale(1.07 1)"><tspan class="cls-9">ALM</tspan><tspan class="cls-10" x="134.66" y="0">A</tspan><tspan class="cls-9" x="177.49" y="0">CE</tspan><tspan x="253.88" y="0">N</tspan></text></g><g id="Layer_2" data-name="Layer 2"><path class="cls-11" d="M793.74,416.37c-56.06,2.29-112,4.13-168.17,4.19a1067,1067,0,0,0-169,13.73c-61,9.75-122.1,18.85-183.87,20.84-31.07,1-62.75,1.4-93.73-1.59-24.84-2.39-49.69-5.67-74.3-9.42-5.5-.84-11.6-2.17-16.78-2.62-.27,11.64,13.75,20.5,23.63,23.7,146.18,47.35,271.77,9.67,417.57-10.6,7.28-1,26-3,33.31-3.82,17.42-2,36.16-2.65,53.65-3.91,75.59-5.44,144.82-8.24,238-16.29,42.78-3.69,130.25-14.44,129.45-23.1C981.65,408.63,807.75,415.79,793.74,416.37Z" transform="translate(-86.32 -85.02)"/><path class="cls-12" d="M87.57,437c1.78.29,11.64,2,20.83,3.26,24.65,3.28,45.75,5.85,70.59,8.24,31,3,62.66,2.59,93.73,1.58,61.77-2,122.89-11.09,183.87-20.84a1067,1067,0,0,1,169-13.72c31.5,0,63-.64,94.42-1.56l2.13-.25c-60.77-10.21-116.15-10.89-183.36-8.56-32.75,1.13-63.86,7.38-93.57,10.69-32.77,3.66-69.38,9.52-102.2,12.62-31.8,3-63.53,6.42-95.47,7.39-34.64,1-64.31-1.44-98.85-4.78-4-.39-61.15-6.91-62-7.4-.16,1.88.15,5.9.1,7.78C86.73,431.84,87.25,436.9,87.57,437Z" transform="translate(-86.32 -85.02)"/></g></svg>